<svg width="624" height="245" viewBox="0 0 624 245" fill="none" xmlns="http://www.w3.org/2000/svg">
<rect width="624" height="245" rx="16" fill="#CCCDF4"/>
<path d="M51.0611 33.0895C50.9545 32.7443 50.8075 32.4354 50.62 32.1626C50.4368 31.8857 50.2152 31.6491 49.9553 31.4531C49.6996 31.2571 49.4055 31.1101 49.0732 31.0121C48.7408 30.9098 48.3786 30.8587 47.9865 30.8587C47.2834 30.8587 46.657 31.0355 46.1072 31.3892C45.5575 31.7429 45.125 32.2628 44.8097 32.9489C44.4986 33.6307 44.343 34.4616 44.343 35.4418C44.343 36.4304 44.4986 37.2678 44.8097 37.9538C45.1207 38.6399 45.5533 39.1619 46.1072 39.5199C46.6612 39.8736 47.3047 40.0504 48.0376 40.0504C48.7024 40.0504 49.2777 39.9226 49.7635 39.6669C50.2536 39.4112 50.6307 39.049 50.8949 38.5803C51.1591 38.1072 51.2912 37.5533 51.2912 36.9183L51.8281 37.0014H48.2741V35.1477H53.5859V36.7202C53.5859 37.8409 53.3473 38.8104 52.87 39.6286C52.3928 40.4467 51.7365 41.0774 50.9013 41.5206C50.0661 41.9595 49.1072 42.179 48.0249 42.179C46.8189 42.179 45.7599 41.9084 44.848 41.3672C43.9403 40.8217 43.2308 40.0483 42.7195 39.0469C42.2124 38.0412 41.9588 36.848 41.9588 35.4673C41.9588 34.4105 42.108 33.4666 42.4062 32.6357C42.7088 31.8047 43.1307 31.0994 43.6719 30.5199C44.2131 29.9361 44.848 29.4929 45.5767 29.1903C46.3054 28.8835 47.098 28.7301 47.9545 28.7301C48.679 28.7301 49.3544 28.8366 49.9808 29.0497C50.6072 29.2585 51.1634 29.5568 51.6491 29.9446C52.1392 30.3324 52.5419 30.7926 52.8572 31.3253C53.1726 31.858 53.3793 32.446 53.4773 33.0895H51.0611ZM57.1559 42H54.6246L59.2333 28.9091H62.1609L66.7759 42H64.2447L60.7482 31.5938H60.646L57.1559 42ZM57.239 36.8672H64.1424V38.772H57.239V36.8672ZM79.0902 33.326H76.6996C76.6314 32.9339 76.5057 32.5866 76.3224 32.2841C76.1392 31.9773 75.9112 31.7173 75.6385 31.5043C75.3658 31.2912 75.0547 31.1314 74.7053 31.0249C74.3601 30.9141 73.9872 30.8587 73.5866 30.8587C72.875 30.8587 72.2443 31.0376 71.6946 31.3956C71.1449 31.7493 70.7145 32.2692 70.4034 32.9553C70.0923 33.6371 69.9368 34.4702 69.9368 35.4545C69.9368 36.456 70.0923 37.2997 70.4034 37.9858C70.7188 38.6676 71.1491 39.1832 71.6946 39.5327C72.2443 39.8778 72.8729 40.0504 73.5803 40.0504C73.9723 40.0504 74.3388 39.9993 74.6797 39.897C75.0249 39.7905 75.3338 39.6349 75.6065 39.4304C75.8835 39.2259 76.1158 38.9744 76.3033 38.6761C76.495 38.3778 76.6271 38.0369 76.6996 37.6534L79.0902 37.6662C79.0007 38.2884 78.8068 38.8722 78.5085 39.4176C78.2145 39.9631 77.8288 40.4446 77.3516 40.8622C76.8743 41.2756 76.3161 41.5994 75.6768 41.8338C75.0376 42.0639 74.3281 42.179 73.5483 42.179C72.3977 42.179 71.3707 41.9126 70.4673 41.38C69.5639 40.8473 68.8523 40.0781 68.3324 39.0724C67.8125 38.0668 67.5526 36.8608 67.5526 35.4545C67.5526 34.044 67.8146 32.8381 68.3388 31.8366C68.8629 30.831 69.5767 30.0618 70.4801 29.5291C71.3835 28.9964 72.4063 28.7301 73.5483 28.7301C74.277 28.7301 74.9545 28.8324 75.581 29.0369C76.2074 29.2415 76.7656 29.5419 77.2557 29.9382C77.7457 30.3303 78.1484 30.8118 78.4638 31.3828C78.7834 31.9496 78.9922 32.5973 79.0902 33.326ZM85.6245 45.6818V32.1818H87.9V33.8054H88.0343C88.1536 33.5668 88.3219 33.3132 88.5392 33.0447C88.7566 32.772 89.0506 32.5398 89.4213 32.348C89.7921 32.152 90.2651 32.054 90.8404 32.054C91.5989 32.054 92.2828 32.2479 92.8922 32.6357C93.5059 33.0192 93.9917 33.5881 94.3496 34.3423C94.7118 35.0923 94.8929 36.0128 94.8929 37.1037C94.8929 38.1818 94.7161 39.098 94.3624 39.8523C94.0087 40.6065 93.5272 41.1818 92.9178 41.5781C92.3084 41.9744 91.6181 42.1726 90.8468 42.1726C90.2843 42.1726 89.8176 42.0788 89.4469 41.8913C89.0762 41.7038 88.7779 41.478 88.552 41.2138C88.3304 40.9453 88.1578 40.6918 88.0343 40.4531H87.9384V45.6818H85.6245ZM87.8936 37.0909C87.8936 37.7259 87.9831 38.282 88.1621 38.7592C88.3453 39.2365 88.6074 39.6094 88.9483 39.8778C89.2935 40.142 89.7111 40.2741 90.2012 40.2741C90.7125 40.2741 91.1408 40.1378 91.486 39.8651C91.8311 39.5881 92.0911 39.2109 92.2658 38.7337C92.4448 38.2521 92.5343 37.7045 92.5343 37.0909C92.5343 36.4815 92.4469 35.9403 92.2722 35.4673C92.0975 34.9943 91.8375 34.6236 91.4924 34.3551C91.1472 34.0866 90.7168 33.9524 90.2012 33.9524C89.7069 33.9524 89.2871 34.0824 88.9419 34.3423C88.5968 34.6023 88.3347 34.9666 88.1557 35.4354C87.981 35.9041 87.8936 36.456 87.8936 37.0909ZM96.8745 42V32.1818H99.1181V33.8182H99.2203C99.3993 33.2514 99.7061 32.8146 100.141 32.5078C100.58 32.1967 101.08 32.0412 101.643 32.0412C101.771 32.0412 101.914 32.0476 102.071 32.0604C102.233 32.0689 102.367 32.0838 102.474 32.1051V34.2337C102.376 34.1996 102.22 34.1697 102.007 34.1442C101.798 34.1143 101.596 34.0994 101.4 34.0994C100.978 34.0994 100.599 34.1911 100.262 34.3743C99.9299 34.5533 99.6678 34.8026 99.476 35.1222C99.2843 35.4418 99.1884 35.8104 99.1884 36.228V42H96.8745ZM107.953 42.1918C106.969 42.1918 106.119 41.9872 105.403 41.5781C104.691 41.1648 104.144 40.581 103.76 39.8267C103.377 39.0682 103.185 38.1754 103.185 37.1484C103.185 36.1385 103.377 35.2521 103.76 34.4893C104.148 33.7223 104.689 33.1257 105.384 32.6996C106.078 32.2692 106.895 32.054 107.832 32.054C108.437 32.054 109.008 32.152 109.545 32.348C110.086 32.5398 110.564 32.8381 110.977 33.2429C111.395 33.6477 111.723 34.1634 111.961 34.7898C112.2 35.4119 112.319 36.1534 112.319 37.0142V37.7237H104.272V36.1641H110.101C110.097 35.7209 110.001 35.3267 109.814 34.9815C109.626 34.6321 109.364 34.3572 109.027 34.157C108.695 33.9567 108.307 33.8565 107.864 33.8565C107.391 33.8565 106.975 33.9716 106.618 34.2017C106.26 34.4276 105.98 34.7259 105.78 35.0966C105.584 35.4631 105.484 35.8658 105.48 36.3047V37.6662C105.48 38.2372 105.584 38.7273 105.793 39.1364C106.002 39.5412 106.294 39.8523 106.669 40.0696C107.044 40.2827 107.483 40.3892 107.985 40.3892C108.322 40.3892 108.627 40.3423 108.9 40.2486C109.172 40.1506 109.409 40.0078 109.609 39.8203C109.809 39.6328 109.961 39.4006 110.063 39.1236L112.223 39.3665C112.087 39.9375 111.827 40.4361 111.444 40.8622C111.064 41.2841 110.578 41.6122 109.986 41.8466C109.394 42.0767 108.716 42.1918 107.953 42.1918ZM122.037 34.777L119.927 35.0071C119.868 34.794 119.763 34.5938 119.614 34.4062C119.469 34.2188 119.273 34.0675 119.026 33.9524C118.779 33.8374 118.476 33.7798 118.118 33.7798C117.637 33.7798 117.232 33.8842 116.904 34.093C116.58 34.3018 116.42 34.5724 116.425 34.9048C116.42 35.1903 116.525 35.4226 116.738 35.6016C116.955 35.7805 117.313 35.9276 117.812 36.0426L119.486 36.4006C120.415 36.6009 121.106 36.9183 121.557 37.353C122.013 37.7876 122.243 38.3565 122.248 39.0597C122.243 39.6776 122.062 40.223 121.704 40.696C121.351 41.1648 120.858 41.5312 120.228 41.7955C119.597 42.0597 118.873 42.1918 118.055 42.1918C116.853 42.1918 115.885 41.9403 115.153 41.4375C114.42 40.9304 113.983 40.2251 113.842 39.3217L116.099 39.1044C116.201 39.5476 116.418 39.8821 116.751 40.108C117.083 40.3338 117.515 40.4467 118.048 40.4467C118.598 40.4467 119.039 40.3338 119.371 40.108C119.708 39.8821 119.876 39.603 119.876 39.2706C119.876 38.9893 119.768 38.7571 119.55 38.5739C119.337 38.3906 119.005 38.25 118.553 38.152L116.878 37.8004C115.937 37.6044 115.24 37.2741 114.788 36.8097C114.336 36.3409 114.113 35.7486 114.117 35.0327C114.113 34.4276 114.277 33.9034 114.609 33.4602C114.946 33.0128 115.412 32.6676 116.009 32.4247C116.61 32.1776 117.302 32.054 118.086 32.054C119.237 32.054 120.143 32.299 120.803 32.7891C121.468 33.2791 121.879 33.9418 122.037 34.777ZM128.502 42.1918C127.518 42.1918 126.668 41.9872 125.952 41.5781C125.24 41.1648 124.693 40.581 124.309 39.8267C123.926 39.0682 123.734 38.1754 123.734 37.1484C123.734 36.1385 123.926 35.2521 124.309 34.4893C124.697 33.7223 125.238 33.1257 125.933 32.6996C126.627 32.2692 127.443 32.054 128.381 32.054C128.986 32.054 129.557 32.152 130.094 32.348C130.635 32.5398 131.112 32.8381 131.526 33.2429C131.943 33.6477 132.271 34.1634 132.51 34.7898C132.749 35.4119 132.868 36.1534 132.868 37.0142V37.7237H124.82V36.1641H130.65C130.646 35.7209 130.55 35.3267 130.362 34.9815C130.175 34.6321 129.913 34.3572 129.576 34.157C129.244 33.9567 128.856 33.8565 128.413 33.8565C127.94 33.8565 127.524 33.9716 127.166 34.2017C126.808 34.4276 126.529 34.7259 126.329 35.0966C126.133 35.4631 126.033 35.8658 126.029 36.3047V37.6662C126.029 38.2372 126.133 38.7273 126.342 39.1364C126.551 39.5412 126.843 39.8523 127.218 40.0696C127.593 40.2827 128.031 40.3892 128.534 40.3892C128.871 40.3892 129.176 40.3423 129.448 40.2486C129.721 40.1506 129.958 40.0078 130.158 39.8203C130.358 39.6328 130.509 39.4006 130.612 39.1236L132.772 39.3665C132.636 39.9375 132.376 40.4361 131.992 40.8622C131.613 41.2841 131.127 41.6122 130.535 41.8466C129.943 42.0767 129.265 42.1918 128.502 42.1918ZM137.14 36.2472V42H134.826V32.1818H137.037V33.8501H137.152C137.378 33.3004 137.738 32.8636 138.233 32.5398C138.731 32.2159 139.347 32.054 140.08 32.054C140.757 32.054 141.348 32.1989 141.85 32.4886C142.358 32.7784 142.75 33.1982 143.027 33.7479C143.308 34.2976 143.446 34.9645 143.442 35.7486V42H141.128V36.1065C141.128 35.4503 140.958 34.9368 140.617 34.5661C140.28 34.1953 139.814 34.0099 139.217 34.0099C138.812 34.0099 138.452 34.0994 138.137 34.2784C137.826 34.4531 137.581 34.7067 137.402 35.0391C137.227 35.3714 137.14 35.7741 137.14 36.2472ZM150.697 32.1818V33.9716H145.053V32.1818H150.697ZM146.446 29.8295H148.76V39.0469C148.76 39.358 148.807 39.5966 148.901 39.7628C148.999 39.9247 149.127 40.0355 149.284 40.0952C149.442 40.1548 149.617 40.1847 149.809 40.1847C149.953 40.1847 150.086 40.174 150.205 40.1527C150.328 40.1314 150.422 40.1122 150.486 40.0952L150.876 41.9041C150.752 41.9467 150.576 41.9936 150.346 42.0447C150.12 42.0959 149.843 42.1257 149.515 42.1342C148.935 42.1513 148.413 42.0639 147.949 41.8722C147.484 41.6761 147.115 41.3736 146.843 40.9645C146.574 40.5554 146.442 40.044 146.446 39.4304V29.8295ZM160.252 34.777L158.142 35.0071C158.083 34.794 157.978 34.5938 157.829 34.4062C157.684 34.2188 157.488 34.0675 157.241 33.9524C156.994 33.8374 156.691 33.7798 156.333 33.7798C155.852 33.7798 155.447 33.8842 155.119 34.093C154.795 34.3018 154.635 34.5724 154.639 34.9048C154.635 35.1903 154.74 35.4226 154.953 35.6016C155.17 35.7805 155.528 35.9276 156.026 36.0426L157.701 36.4006C158.63 36.6009 159.32 36.9183 159.772 37.353C160.228 37.7876 160.458 38.3565 160.463 39.0597C160.458 39.6776 160.277 40.223 159.919 40.696C159.566 41.1648 159.073 41.5312 158.443 41.7955C157.812 42.0597 157.088 42.1918 156.269 42.1918C155.068 42.1918 154.1 41.9403 153.367 41.4375C152.634 40.9304 152.198 40.2251 152.057 39.3217L154.313 39.1044C154.416 39.5476 154.633 39.8821 154.965 40.108C155.298 40.3338 155.73 40.4467 156.263 40.4467C156.813 40.4467 157.254 40.3338 157.586 40.108C157.923 39.8821 158.091 39.603 158.091 39.2706C158.091 38.9893 157.982 38.7571 157.765 38.5739C157.552 38.3906 157.22 38.25 156.768 38.152L155.093 37.8004C154.151 37.6044 153.455 37.2741 153.003 36.8097C152.551 36.3409 152.328 35.7486 152.332 35.0327C152.328 34.4276 152.492 33.9034 152.824 33.4602C153.161 33.0128 153.627 32.6676 154.224 32.4247C154.825 32.1776 155.517 32.054 156.301 32.054C157.452 32.054 158.357 32.299 159.018 32.7891C159.683 33.2791 160.094 33.9418 160.252 34.777Z" fill="black"/>
<path d="M95.1932 77L88.625 53.7273H93.1591L97.3523 70.8295H97.5682L102.045 53.7273H106.17L110.659 70.8409H110.864L115.057 53.7273H119.591L113.023 77H108.864L104.205 60.6705H104.023L99.3523 77H95.1932ZM122.332 77V59.5455H126.446V77H122.332ZM124.401 57.0682C123.749 57.0682 123.188 56.8523 122.719 56.4205C122.249 55.9811 122.014 55.4545 122.014 54.8409C122.014 54.2197 122.249 53.6932 122.719 53.2614C123.188 52.822 123.749 52.6023 124.401 52.6023C125.06 52.6023 125.62 52.822 126.082 53.2614C126.552 53.6932 126.787 54.2197 126.787 54.8409C126.787 55.4545 126.552 55.9811 126.082 56.4205C125.62 56.8523 125.06 57.0682 124.401 57.0682ZM134.79 66.7727V77H130.676V59.5455H134.608V62.5114H134.812C135.214 61.5341 135.854 60.7576 136.733 60.1818C137.619 59.6061 138.714 59.3182 140.017 59.3182C141.222 59.3182 142.271 59.5758 143.165 60.0909C144.066 60.6061 144.763 61.3523 145.256 62.3295C145.756 63.3068 146.002 64.4924 145.994 65.8864V77H141.881V66.5227C141.881 65.3561 141.578 64.4432 140.972 63.7841C140.373 63.125 139.544 62.7955 138.483 62.7955C137.763 62.7955 137.123 62.9545 136.562 63.2727C136.009 63.5833 135.574 64.0341 135.256 64.625C134.945 65.2159 134.79 65.9318 134.79 66.7727ZM158.892 59.5455V62.7273H148.858V59.5455H158.892ZM151.335 55.3636H155.449V71.75C155.449 72.303 155.532 72.7273 155.699 73.0227C155.873 73.3106 156.1 73.5076 156.381 73.6136C156.661 73.7197 156.972 73.7727 157.312 73.7727C157.57 73.7727 157.805 73.7538 158.017 73.7159C158.237 73.678 158.403 73.6439 158.517 73.6136L159.21 76.8295C158.991 76.9053 158.676 76.9886 158.267 77.0795C157.866 77.1705 157.373 77.2235 156.79 77.2386C155.759 77.2689 154.831 77.1136 154.006 76.7727C153.18 76.4242 152.525 75.8864 152.04 75.1591C151.563 74.4318 151.328 73.5227 151.335 72.4318V55.3636ZM169.872 77.3409C168.122 77.3409 166.611 76.9773 165.338 76.25C164.073 75.5152 163.099 74.4773 162.418 73.1364C161.736 71.7879 161.395 70.2008 161.395 68.375C161.395 66.5795 161.736 65.0038 162.418 63.6477C163.107 62.2841 164.069 61.2235 165.304 60.4659C166.539 59.7008 167.99 59.3182 169.656 59.3182C170.732 59.3182 171.747 59.4924 172.702 59.8409C173.664 60.1818 174.512 60.7121 175.247 61.4318C175.99 62.1515 176.573 63.0682 176.997 64.1818C177.421 65.2879 177.634 66.6061 177.634 68.1364V69.3977H163.327V66.625H173.69C173.683 65.8371 173.512 65.1364 173.179 64.5227C172.846 63.9015 172.38 63.4129 171.781 63.0568C171.19 62.7008 170.501 62.5227 169.713 62.5227C168.872 62.5227 168.134 62.7273 167.497 63.1364C166.861 63.5379 166.365 64.0682 166.009 64.7273C165.66 65.3788 165.482 66.0947 165.474 66.875V69.2955C165.474 70.3106 165.66 71.1818 166.031 71.9091C166.402 72.6288 166.921 73.1818 167.588 73.5682C168.255 73.947 169.035 74.1364 169.929 74.1364C170.527 74.1364 171.069 74.053 171.554 73.8864C172.039 73.7121 172.459 73.4583 172.815 73.125C173.171 72.7917 173.44 72.3788 173.622 71.8864L177.463 72.3182C177.221 73.3333 176.759 74.2197 176.077 74.9773C175.402 75.7273 174.539 76.3106 173.486 76.7273C172.433 77.1364 171.228 77.3409 169.872 77.3409ZM181.114 77V59.5455H185.102V62.4545H185.284C185.602 61.447 186.148 60.6705 186.92 60.125C187.701 59.572 188.591 59.2955 189.591 59.2955C189.818 59.2955 190.072 59.3068 190.352 59.3295C190.64 59.3447 190.879 59.3712 191.068 59.4091V63.1932C190.894 63.1326 190.617 63.0795 190.239 63.0341C189.867 62.9811 189.508 62.9545 189.159 62.9545C188.409 62.9545 187.735 63.1174 187.136 63.4432C186.545 63.7614 186.08 64.2045 185.739 64.7727C185.398 65.3409 185.227 65.9962 185.227 66.7386V77H181.114ZM191.148 57.2614V53.7273H209.716V57.2614H202.523V77H198.341V57.2614H191.148ZM213.114 77V59.5455H217.227V77H213.114ZM215.182 57.0682C214.53 57.0682 213.97 56.8523 213.5 56.4205C213.03 55.9811 212.795 55.4545 212.795 54.8409C212.795 54.2197 213.03 53.6932 213.5 53.2614C213.97 52.822 214.53 52.6023 215.182 52.6023C215.841 52.6023 216.402 52.822 216.864 53.2614C217.333 53.6932 217.568 54.2197 217.568 54.8409C217.568 55.4545 217.333 55.9811 216.864 56.4205C216.402 56.8523 215.841 57.0682 215.182 57.0682ZM227.935 77.3068C226.563 77.3068 225.336 76.9545 224.253 76.25C223.17 75.5455 222.313 74.5227 221.685 73.1818C221.056 71.8409 220.741 70.2121 220.741 68.2955C220.741 66.3561 221.06 64.7197 221.696 63.3864C222.34 62.0455 223.207 61.0341 224.298 60.3523C225.389 59.6629 226.605 59.3182 227.946 59.3182C228.969 59.3182 229.81 59.4924 230.469 59.8409C231.128 60.1818 231.651 60.5947 232.037 61.0795C232.423 61.5568 232.723 62.0076 232.935 62.4318H233.105V53.7273H237.23V77H233.185V74.25H232.935C232.723 74.6742 232.416 75.125 232.014 75.6023C231.613 76.072 231.082 76.4735 230.423 76.8068C229.764 77.1402 228.935 77.3068 227.935 77.3068ZM229.082 73.9318C229.954 73.9318 230.696 73.697 231.31 73.2273C231.923 72.75 232.389 72.0871 232.707 71.2386C233.026 70.3902 233.185 69.4015 233.185 68.2727C233.185 67.1439 233.026 66.1629 232.707 65.3295C232.397 64.4962 231.935 63.8485 231.321 63.3864C230.715 62.9242 229.969 62.6932 229.082 62.6932C228.166 62.6932 227.401 62.9318 226.787 63.4091C226.173 63.8864 225.711 64.5455 225.401 65.3864C225.09 66.2273 224.935 67.1894 224.935 68.2727C224.935 69.3636 225.09 70.3371 225.401 71.1932C225.719 72.0417 226.185 72.7121 226.798 73.2045C227.42 73.6894 228.181 73.9318 229.082 73.9318ZM249.341 77.3409C247.591 77.3409 246.08 76.9773 244.807 76.25C243.542 75.5152 242.568 74.4773 241.886 73.1364C241.205 71.7879 240.864 70.2008 240.864 68.375C240.864 66.5795 241.205 65.0038 241.886 63.6477C242.576 62.2841 243.538 61.2235 244.773 60.4659C246.008 59.7008 247.458 59.3182 249.125 59.3182C250.201 59.3182 251.216 59.4924 252.17 59.8409C253.133 60.1818 253.981 60.7121 254.716 61.4318C255.458 62.1515 256.042 63.0682 256.466 64.1818C256.89 65.2879 257.102 66.6061 257.102 68.1364V69.3977H242.795V66.625H253.159C253.152 65.8371 252.981 65.1364 252.648 64.5227C252.314 63.9015 251.848 63.4129 251.25 63.0568C250.659 62.7008 249.97 62.5227 249.182 62.5227C248.341 62.5227 247.602 62.7273 246.966 63.1364C246.33 63.5379 245.833 64.0682 245.477 64.7273C245.129 65.3788 244.951 66.0947 244.943 66.875V69.2955C244.943 70.3106 245.129 71.1818 245.5 71.9091C245.871 72.6288 246.39 73.1818 247.057 73.5682C247.723 73.947 248.504 74.1364 249.398 74.1364C249.996 74.1364 250.538 74.053 251.023 73.8864C251.508 73.7121 251.928 73.4583 252.284 73.125C252.64 72.7917 252.909 72.3788 253.091 71.8864L256.932 72.3182C256.689 73.3333 256.227 74.2197 255.545 74.9773C254.871 75.7273 254.008 76.3106 252.955 76.7273C251.902 77.1364 250.697 77.3409 249.341 77.3409Z" fill="black"/>
</svg>
