<?xml version="1.0" encoding="UTF-8"?>
<svg viewBox="0 0 624 245" xmlns="http://www.w3.org/2000/svg">
<rect width="100%" height="100%" rx="16" fill="#CCCDF4"/>
<path d="m51.061 33.09c-0.1066-0.3452-0.2536-0.6541-0.4411-0.9269-0.1832-0.2769-0.4048-0.5135-0.6647-0.7095-0.2557-0.196-0.5498-0.343-0.8821-0.441-0.3324-0.1023-0.6946-0.1534-1.0867-0.1534-0.7031 0-1.3295 0.1768-1.8793 0.5305-0.5497 0.3537-0.9822 0.8736-1.2975 1.5597-0.3111 0.6818-0.4667 1.5127-0.4667 2.4929 0 0.9886 0.1556 1.826 0.4667 2.512 0.311 0.6861 0.7436 1.2081 1.2975 1.5661 0.554 0.3537 1.1975 0.5305 1.9304 0.5305 0.6648 0 1.2401-0.1278 1.7259-0.3835 0.4901-0.2557 0.8672-0.6179 1.1314-1.0866 0.2642-0.4731 0.3963-1.027 0.3963-1.662l0.5369 0.0831h-3.554v-1.8537h5.3118v1.5725c0 1.1207-0.2386 2.0902-0.7159 2.9084-0.4772 0.8181-1.1335 1.4488-1.9687 1.892-0.8352 0.4389-1.7941 0.6584-2.8764 0.6584-1.206 0-2.265-0.2706-3.1769-0.8118-0.9077-0.5455-1.6172-1.3189-2.1285-2.3203-0.5071-1.0057-0.7607-2.1989-0.7607-3.5796 0-1.0568 0.1492-2.0007 0.4474-2.8316 0.3026-0.831 0.7245-1.5363 1.2657-2.1158 0.5412-0.5838 1.1761-1.027 1.9048-1.3296 0.7287-0.3068 1.5213-0.4602 2.3778-0.4602 0.7245 0 1.3999 0.1065 2.0263 0.3196 0.6264 0.2088 1.1826 0.5071 1.6683 0.8949 0.4901 0.3878 0.8928 0.848 1.2081 1.3807 0.3154 0.5327 0.5221 1.1207 0.6201 1.7642h-2.4162zm6.0948 8.9105h-2.5313l4.6087-13.091h2.9276l4.615 13.091h-2.5312l-3.4965-10.406h-0.1022l-3.4901 10.406zm0.0831-5.1328h6.9034v1.9048h-6.9034v-1.9048zm21.851-3.5412h-2.3906c-0.0682-0.3921-0.1939-0.7394-0.3772-1.0419-0.1832-0.3068-0.4112-0.5668-0.6839-0.7798-0.2727-0.2131-0.5838-0.3729-0.9332-0.4794-0.3452-0.1108-0.7181-0.1662-1.1187-0.1662-0.7116 0-1.3423 0.1789-1.892 0.5369-0.5497 0.3537-0.9801 0.8736-1.2912 1.5597-0.3111 0.6818-0.4666 1.5149-0.4666 2.4992 0 1.0015 0.1555 1.8452 0.4666 2.5313 0.3154 0.6818 0.7457 1.1974 1.2912 1.5469 0.5497 0.3451 1.1783 0.5177 1.8857 0.5177 0.392 0 0.7585-0.0511 1.0994-0.1534 0.3452-0.1065 0.6541-0.2621 0.9268-0.4666 0.277-0.2045 0.5093-0.456 0.6968-0.7543 0.1917-0.2983 0.3238-0.6392 0.3963-1.0227l2.3906 0.0128c-0.0895 0.6222-0.2834 1.206-0.5817 1.7514-0.294 0.5455-0.6797 1.027-1.1569 1.4446-0.4773 0.4134-1.0355 0.7372-1.6748 0.9716-0.6392 0.2301-1.3487 0.3452-2.1285 0.3452-1.1506 0-2.1776-0.2664-3.081-0.799-0.9034-0.5327-1.615-1.3019-2.1349-2.3076-0.5199-1.0056-0.7798-2.2116-0.7798-3.6179 0-1.4105 0.262-2.6164 0.7862-3.6179 0.5241-1.0056 1.2379-1.7748 2.1413-2.3075s1.9262-0.799 3.0682-0.799c0.7287 0 1.4062 0.1023 2.0327 0.3068 0.6264 0.2046 1.1846 0.505 1.6747 0.9013 0.49 0.3921 0.8927 0.8736 1.2081 1.4446 0.3196 0.5668 0.5284 1.2145 0.6264 1.9432zm6.5343 12.356v-13.5h2.2755v1.6236h0.1343c0.1193-0.2386 0.2876-0.4922 0.5049-0.7607 0.2174-0.2727 0.5114-0.5049 0.8821-0.6967 0.3708-0.196 0.8438-0.294 1.4191-0.294 0.7585 0 1.4424 0.1939 2.0518 0.5817 0.6137 0.3835 1.0995 0.9524 1.4574 1.7066 0.3622 0.75 0.5433 1.6705 0.5433 2.7614 0 1.0781-0.1768 1.9943-0.5305 2.7486-0.3537 0.7542-0.8352 1.3295-1.4446 1.7258s-1.2997 0.5945-2.071 0.5945c-0.5625 0-1.0292-0.0938-1.3999-0.2813s-0.669-0.4133-0.8949-0.6775c-0.2216-0.2685-0.3942-0.522-0.5177-0.7607h-0.0959v5.2287h-2.3139zm2.2691-8.5909c0 0.635 0.0895 1.1911 0.2685 1.6683 0.1832 0.4773 0.4453 0.8502 0.7862 1.1186 0.3452 0.2642 0.7628 0.3963 1.2529 0.3963 0.5113 0 0.9396-0.1363 1.2848-0.409 0.3451-0.277 0.6051-0.6542 0.7798-1.1314 0.179-0.4816 0.2685-1.0292 0.2685-1.6428 0-0.6094-0.0874-1.1506-0.2621-1.6236s-0.4347-0.8437-0.7798-1.1122c-0.3452-0.2685-0.7756-0.4027-1.2912-0.4027-0.4943 0-0.9141 0.13-1.2593 0.3899-0.3451 0.26-0.6072 0.6243-0.7862 1.0931-0.1747 0.4687-0.2621 1.0206-0.2621 1.6555zm8.9809 4.9091v-9.8182h2.2436v1.6364h0.1022c0.179-0.5668 0.4858-1.0036 0.9207-1.3104 0.439-0.3111 0.939-0.4666 1.502-0.4666 0.128 0 0.271 0.0064 0.428 0.0192 0.162 0.0085 0.296 0.0234 0.403 0.0447v2.1286c-0.098-0.0341-0.254-0.064-0.467-0.0895-0.209-0.0299-0.411-0.0448-0.607-0.0448-0.422 0-0.801 0.0917-1.138 0.2749-0.3321 0.179-0.5942 0.4283-0.786 0.7479-0.1917 0.3196-0.2876 0.6882-0.2876 1.1058v5.772h-2.3139zm11.078 0.1918c-0.984 0-1.834-0.2046-2.55-0.6137-0.712-0.4133-1.259-0.9971-1.643-1.7514-0.383-0.7585-0.575-1.6513-0.575-2.6783 0-1.0099 0.192-1.8963 0.575-2.6591 0.388-0.767 0.929-1.3636 1.624-1.7897 0.694-0.4304 1.511-0.6456 2.448-0.6456 0.605 0 1.176 0.098 1.713 0.294 0.541 0.1918 1.019 0.4901 1.432 0.8949 0.418 0.4048 0.746 0.9205 0.984 1.5469 0.239 0.6221 0.358 1.3636 0.358 2.2244v0.7095h-8.047v-1.5596h5.829c-4e-3 -0.4432-0.1-0.8374-0.287-1.1826-0.188-0.3494-0.45-0.6243-0.787-0.8245-0.332-0.2003-0.72-0.3005-1.163-0.3005-0.473 0-0.889 0.1151-1.246 0.3452-0.358 0.2259-0.638 0.5242-0.838 0.8949-0.196 0.3665-0.296 0.7692-0.3 1.2081v1.3615c0 0.571 0.104 1.0611 0.313 1.4702 0.209 0.4048 0.501 0.7159 0.876 0.9332 0.375 0.2131 0.814 0.3196 1.316 0.3196 0.337 0 0.642-0.0469 0.915-0.1406 0.272-0.098 0.509-0.2408 0.709-0.4283s0.352-0.4197 0.454-0.6967l2.16 0.2429c-0.136 0.571-0.396 1.0696-0.779 1.4957-0.38 0.4219-0.866 0.75-1.458 0.9844-0.592 0.2301-1.27 0.3452-2.033 0.3452zm14.084-7.4148-2.11 0.2301c-0.059-0.2131-0.164-0.4133-0.313-0.6009-0.145-0.1874-0.341-0.3387-0.588-0.4538-0.247-0.115-0.55-0.1726-0.908-0.1726-0.481 0-0.886 0.1044-1.214 0.3132-0.324 0.2088-0.484 0.4794-0.479 0.8118-5e-3 0.2855 0.1 0.5178 0.313 0.6968 0.217 0.1789 0.575 0.326 1.074 0.441l1.674 0.358c0.929 0.2003 1.62 0.5177 2.071 0.9524 0.456 0.4346 0.686 1.0035 0.691 1.7067-5e-3 0.6179-0.186 1.1633-0.544 1.6363-0.353 0.4688-0.846 0.8352-1.476 1.0995-0.631 0.2642-1.355 0.3963-2.173 0.3963-1.202 0-2.17-0.2515-2.902-0.7543-0.733-0.5071-1.17-1.2124-1.311-2.1158l2.257-0.2173c0.102 0.4432 0.319 0.7777 0.652 1.0036 0.332 0.2258 0.764 0.3387 1.297 0.3387 0.55 0 0.991-0.1129 1.323-0.3387 0.337-0.2259 0.505-0.505 0.505-0.8374 0-0.2813-0.108-0.5135-0.326-0.6967-0.213-0.1833-0.545-0.3239-0.997-0.4219l-1.675-0.3516c-0.941-0.196-1.638-0.5263-2.09-0.9907-0.452-0.4688-0.675-1.0611-0.671-1.777-4e-3 -0.6051 0.16-1.1293 0.492-1.5725 0.337-0.4474 0.803-0.7926 1.4-1.0355 0.601-0.2471 1.293-0.3707 2.077-0.3707 1.151 0 2.057 0.245 2.717 0.7351 0.665 0.49 1.076 1.1527 1.234 1.9879zm6.465 7.4148c-0.984 0-1.834-0.2046-2.55-0.6137-0.712-0.4133-1.259-0.9971-1.643-1.7514-0.383-0.7585-0.575-1.6513-0.575-2.6783 0-1.0099 0.192-1.8963 0.575-2.6591 0.388-0.767 0.929-1.3636 1.624-1.7897 0.694-0.4304 1.51-0.6456 2.448-0.6456 0.605 0 1.176 0.098 1.713 0.294 0.541 0.1918 1.018 0.4901 1.432 0.8949 0.417 0.4048 0.745 0.9205 0.984 1.5469 0.239 0.6221 0.358 1.3636 0.358 2.2244v0.7095h-8.048v-1.5596h5.83c-4e-3 -0.4432-0.1-0.8374-0.288-1.1826-0.187-0.3494-0.449-0.6243-0.786-0.8245-0.332-0.2003-0.72-0.3005-1.163-0.3005-0.473 0-0.889 0.1151-1.247 0.3452-0.358 0.2259-0.637 0.5242-0.837 0.8949-0.196 0.3665-0.296 0.7692-0.3 1.2081v1.3615c0 0.571 0.104 1.0611 0.313 1.4702 0.209 0.4048 0.501 0.7159 0.876 0.9332 0.375 0.2131 0.813 0.3196 1.316 0.3196 0.337 0 0.642-0.0469 0.914-0.1406 0.273-0.098 0.51-0.2408 0.71-0.4283s0.351-0.4197 0.454-0.6967l2.16 0.2429c-0.136 0.571-0.396 1.0696-0.78 1.4957-0.379 0.4219-0.865 0.75-1.457 0.9844-0.592 0.2301-1.27 0.3452-2.033 0.3452zm8.638-5.9446v5.7528h-2.314v-9.8182h2.211v1.6683h0.115c0.226-0.5497 0.586-0.9865 1.081-1.3103 0.498-0.3239 1.114-0.4858 1.847-0.4858 0.677 0 1.268 0.1449 1.77 0.4346 0.508 0.2898 0.9 0.7096 1.177 1.2593 0.281 0.5497 0.419 1.2166 0.415 2.0007v6.2514h-2.314v-5.8935c0-0.6562-0.17-1.1697-0.511-1.5404-0.337-0.3708-0.803-0.5562-1.4-0.5562-0.405 0-0.765 0.0895-1.08 0.2685-0.311 0.1747-0.556 0.4283-0.735 0.7607-0.175 0.3323-0.262 0.735-0.262 1.2081zm13.557-4.0654v1.7898h-5.644v-1.7898h5.644zm-4.251-2.3523h2.314v9.2174c0 0.3111 0.047 0.5497 0.141 0.7159 0.098 0.1619 0.226 0.2727 0.383 0.3324 0.158 0.0596 0.333 0.0895 0.525 0.0895 0.144 0 0.277-0.0107 0.396-0.032 0.123-0.0213 0.217-0.0405 0.281-0.0575l0.39 1.8089c-0.124 0.0426-0.3 0.0895-0.53 0.1406-0.226 0.0512-0.503 0.081-0.831 0.0895-0.58 0.0171-1.102-0.0703-1.566-0.262-0.465-0.1961-0.834-0.4986-1.106-0.9077-0.269-0.4091-0.401-0.9205-0.397-1.5341v-9.6009zm13.806 4.9475-2.11 0.2301c-0.059-0.2131-0.164-0.4133-0.313-0.6009-0.145-0.1874-0.341-0.3387-0.588-0.4538-0.247-0.115-0.55-0.1726-0.908-0.1726-0.481 0-0.886 0.1044-1.214 0.3132-0.324 0.2088-0.484 0.4794-0.48 0.8118-4e-3 0.2855 0.101 0.5178 0.314 0.6968 0.217 0.1789 0.575 0.326 1.073 0.441l1.675 0.358c0.929 0.2003 1.619 0.5177 2.071 0.9524 0.456 0.4346 0.686 1.0035 0.691 1.7067-5e-3 0.6179-0.186 1.1633-0.544 1.6363-0.353 0.4688-0.846 0.8352-1.476 1.0995-0.631 0.2642-1.355 0.3963-2.174 0.3963-1.201 0-2.169-0.2515-2.902-0.7543-0.733-0.5071-1.169-1.2124-1.31-2.1158l2.256-0.2173c0.103 0.4432 0.32 0.7777 0.652 1.0036 0.333 0.2258 0.765 0.3387 1.298 0.3387 0.55 0 0.991-0.1129 1.323-0.3387 0.337-0.2259 0.505-0.505 0.505-0.8374 0-0.2813-0.109-0.5135-0.326-0.6967-0.213-0.1833-0.545-0.3239-0.997-0.4219l-1.675-0.3516c-0.942-0.196-1.638-0.5263-2.09-0.9907-0.452-0.4688-0.675-1.0611-0.671-1.777-4e-3 -0.6051 0.16-1.1293 0.492-1.5725 0.337-0.4474 0.803-0.7926 1.4-1.0355 0.601-0.2471 1.293-0.3707 2.077-0.3707 1.151 0 2.056 0.245 2.717 0.7351 0.665 0.49 1.076 1.1527 1.234 1.9879z"/>
<path d="m95.193 77-6.5682-23.273h4.5341l4.1932 17.102h0.2159l4.4768-17.102h4.125l4.489 17.114h0.205l4.193-17.114h4.534l-6.568 23.273h-4.159l-4.659-16.33h-0.182l-4.6707 16.33h-4.1591zm27.139 0v-17.454h4.114v17.454h-4.114zm2.069-19.932c-0.652 0-1.213-0.2159-1.682-0.6477-0.47-0.4394-0.705-0.966-0.705-1.5796 0-0.6212 0.235-1.1477 0.705-1.5795 0.469-0.4394 1.03-0.6591 1.682-0.6591 0.659 0 1.219 0.2197 1.681 0.6591 0.47 0.4318 0.705 0.9583 0.705 1.5795 0 0.6136-0.235 1.1402-0.705 1.5796-0.462 0.4318-1.022 0.6477-1.681 0.6477zm10.389 9.7045v10.227h-4.114v-17.454h3.932v2.9659h0.204c0.402-0.9773 1.042-1.7538 1.921-2.3296 0.886-0.5757 1.981-0.8636 3.284-0.8636 1.205 0 2.254 0.2576 3.148 0.7727 0.901 0.5152 1.598 1.2614 2.091 2.2386 0.5 0.9773 0.746 2.1629 0.738 3.5569v11.114h-4.113v-10.477c0-1.1666-0.303-2.0795-0.909-2.7386-0.599-0.6591-1.428-0.9886-2.489-0.9886-0.72 0-1.36 0.159-1.921 0.4772-0.553 0.3106-0.988 0.7614-1.306 1.3523-0.311 0.5909-0.466 1.3068-0.466 2.1477zm24.102-7.2272v3.1818h-10.034v-3.1818h10.034zm-7.557-4.1819h4.114v16.386c0 0.553 0.083 0.9773 0.25 1.2727 0.174 0.2879 0.401 0.4849 0.682 0.5909 0.28 0.1061 0.591 0.1591 0.931 0.1591 0.258 0 0.493-0.0189 0.705-0.0568 0.22-0.0379 0.386-0.072 0.5-0.1023l0.693 3.2159c-0.219 0.0758-0.534 0.1591-0.943 0.25-0.401 0.091-0.894 0.144-1.477 0.1591-1.031 0.0303-1.959-0.125-2.784-0.4659-0.826-0.3485-1.481-0.8863-1.966-1.6136-0.477-0.7273-0.712-1.6364-0.705-2.7273v-17.068zm18.537 21.977c-1.75 0-3.261-0.3636-4.534-1.0909-1.265-0.7348-2.239-1.7727-2.92-3.1136-0.682-1.3485-1.023-2.9356-1.023-4.7614 0-1.7955 0.341-3.3712 1.023-4.7273 0.689-1.3636 1.651-2.4242 2.886-3.1818 1.235-0.7651 2.686-1.1477 4.352-1.1477 1.076 0 2.091 0.1742 3.046 0.5227 0.962 0.3409 1.81 0.8712 2.545 1.5909 0.743 0.7197 1.326 1.6364 1.75 2.75 0.424 1.1061 0.637 2.4243 0.637 3.9546v1.2613h-14.307v-2.7727h10.363c-7e-3 -0.7879-0.178-1.4886-0.511-2.1023-0.333-0.6212-0.799-1.1098-1.398-1.4659-0.591-0.356-1.28-0.5341-2.068-0.5341-0.841 0-1.579 0.2046-2.216 0.6137-0.636 0.4015-1.132 0.9318-1.488 1.5909-0.349 0.6515-0.527 1.3674-0.535 2.1477v2.4205c0 1.0151 0.186 1.8863 0.557 2.6136 0.371 0.7197 0.89 1.2727 1.557 1.6591 0.667 0.3788 1.447 0.5682 2.341 0.5682 0.598 0 1.14-0.0834 1.625-0.25 0.485-0.1743 0.905-0.4281 1.261-0.7614s0.625-0.7462 0.807-1.2386l3.841 0.4318c-0.242 1.0151-0.704 1.9015-1.386 2.6591-0.675 0.75-1.538 1.3333-2.591 1.75-1.053 0.4091-2.258 0.6136-3.614 0.6136zm11.242-0.3409v-17.454h3.988v2.909h0.182c0.318-1.0075 0.864-1.784 1.636-2.3295 0.781-0.553 1.671-0.8295 2.671-0.8295 0.227 0 0.481 0.0113 0.761 0.034 0.288 0.0152 0.527 0.0417 0.716 0.0796v3.7841c-0.174-0.0606-0.451-0.1137-0.829-0.1591-0.372-0.053-0.731-0.0796-1.08-0.0796-0.75 0-1.424 0.1629-2.023 0.4887-0.591 0.3182-1.056 0.7613-1.397 1.3295s-0.512 1.2235-0.512 1.9659v10.261h-4.113zm10.034-19.739v-3.5341h18.568v3.5341h-7.193v19.739h-4.182v-19.739h-7.193zm21.966 19.739v-17.454h4.113v17.454h-4.113zm2.068-19.932c-0.652 0-1.212-0.2159-1.682-0.6477-0.47-0.4394-0.705-0.966-0.705-1.5796 0-0.6212 0.235-1.1477 0.705-1.5795 0.47-0.4394 1.03-0.6591 1.682-0.6591 0.659 0 1.22 0.2197 1.682 0.6591 0.469 0.4318 0.704 0.9583 0.704 1.5795 0 0.6136-0.235 1.1402-0.704 1.5796-0.462 0.4318-1.023 0.6477-1.682 0.6477zm12.753 20.239c-1.372 0-2.599-0.3523-3.682-1.0568s-1.94-1.7273-2.568-3.0682c-0.629-1.3409-0.944-2.9697-0.944-4.8863 0-1.9394 0.319-3.5758 0.955-4.9091 0.644-1.3409 1.511-2.3523 2.602-3.0341 1.091-0.6894 2.307-1.0341 3.648-1.0341 1.023 0 1.864 0.1742 2.523 0.5227 0.659 0.3409 1.182 0.7538 1.568 1.2386 0.386 0.4773 0.686 0.9281 0.898 1.3523h0.17v-8.7045h4.125v23.273h-4.045v-2.75h-0.25c-0.212 0.4242-0.519 0.875-0.921 1.3523-0.401 0.4697-0.932 0.8712-1.591 1.2045-0.659 0.3334-1.488 0.5-2.488 0.5zm1.147-3.375c0.872 0 1.614-0.2348 2.228-0.7045 0.613-0.4773 1.079-1.1402 1.397-1.9887 0.319-0.8484 0.478-1.8371 0.478-2.9659s-0.159-2.1098-0.478-2.9432c-0.31-0.8333-0.772-1.481-1.386-1.9431-0.606-0.4622-1.352-0.6932-2.239-0.6932-0.916 0-1.681 0.2386-2.295 0.7159s-1.076 1.1364-1.386 1.9773c-0.311 0.8409-0.466 1.803-0.466 2.8863 0 1.0909 0.155 2.0644 0.466 2.9205 0.318 0.8485 0.784 1.5189 1.397 2.0113 0.622 0.4849 1.383 0.7273 2.284 0.7273zm20.259 3.4091c-1.75 0-3.261-0.3636-4.534-1.0909-1.265-0.7348-2.239-1.7727-2.921-3.1136-0.681-1.3485-1.022-2.9356-1.022-4.7614 0-1.7955 0.341-3.3712 1.022-4.7273 0.69-1.3636 1.652-2.4242 2.887-3.1818 1.235-0.7651 2.685-1.1477 4.352-1.1477 1.076 0 2.091 0.1742 3.045 0.5227 0.963 0.3409 1.811 0.8712 2.546 1.5909 0.742 0.7197 1.326 1.6364 1.75 2.75 0.424 1.1061 0.636 2.4243 0.636 3.9546v1.2613h-14.307v-2.7727h10.364c-7e-3 -0.7879-0.178-1.4886-0.511-2.1023-0.334-0.6212-0.8-1.1098-1.398-1.4659-0.591-0.356-1.28-0.5341-2.068-0.5341-0.841 0-1.58 0.2046-2.216 0.6137-0.636 0.4015-1.133 0.9318-1.489 1.5909-0.348 0.6515-0.526 1.3674-0.534 2.1477v2.4205c0 1.0151 0.186 1.8863 0.557 2.6136 0.371 0.7197 0.89 1.2727 1.557 1.6591 0.666 0.3788 1.447 0.5682 2.341 0.5682 0.598 0 1.14-0.0834 1.625-0.25 0.485-0.1743 0.905-0.4281 1.261-0.7614s0.625-0.7462 0.807-1.2386l3.841 0.4318c-0.243 1.0151-0.705 1.9015-1.387 2.6591-0.674 0.75-1.537 1.3333-2.59 1.75-1.053 0.4091-2.258 0.6136-3.614 0.6136z"/>
</svg>
